<mxfile host="app.diagrams.net" modified="2024-04-14T08:44:51.923Z" agent="Mozilla/5.0 (X11; Ubuntu; Linux x86_64; rv:124.0) Gecko/20100101 Firefox/124.0" etag="7DfP17b52EfksswK4hvk" version="23.0.1" type="device">
  <diagram id="C5RBs43oDa-KdzZeNtuy" name="Page-1">
    <mxGraphModel dx="1434" dy="794" grid="1" gridSize="10" guides="1" tooltips="1" connect="1" arrows="1" fold="1" page="1" pageScale="1" pageWidth="827" pageHeight="1169" math="0" shadow="0">
      <root>
        <mxCell id="WIyWlLk6GJQsqaUBKTNV-0" />
        <mxCell id="WIyWlLk6GJQsqaUBKTNV-1" parent="WIyWlLk6GJQsqaUBKTNV-0" />
        <mxCell id="b_lhGth3HPW_QYc_eFgR-0" value="Event Loop" style="rounded=0;whiteSpace=wrap;html=1;" vertex="1" parent="WIyWlLk6GJQsqaUBKTNV-1">
          <mxGeometry x="80" y="30" width="120" height="60" as="geometry" />
        </mxCell>
        <mxCell id="b_lhGth3HPW_QYc_eFgR-24" style="edgeStyle=orthogonalEdgeStyle;rounded=0;orthogonalLoop=1;jettySize=auto;html=1;exitX=0.5;exitY=1;exitDx=0;exitDy=0;" edge="1" parent="WIyWlLk6GJQsqaUBKTNV-1" source="b_lhGth3HPW_QYc_eFgR-5" target="b_lhGth3HPW_QYc_eFgR-20">
          <mxGeometry relative="1" as="geometry" />
        </mxCell>
        <mxCell id="b_lhGth3HPW_QYc_eFgR-5" value="next()" style="swimlane;whiteSpace=wrap;html=1;" vertex="1" parent="WIyWlLk6GJQsqaUBKTNV-1">
          <mxGeometry x="50" y="180" width="200" height="220" as="geometry" />
        </mxCell>
        <mxCell id="b_lhGth3HPW_QYc_eFgR-45" style="edgeStyle=orthogonalEdgeStyle;rounded=0;orthogonalLoop=1;jettySize=auto;html=1;entryX=0.5;entryY=1;entryDx=0;entryDy=0;" edge="1" parent="b_lhGth3HPW_QYc_eFgR-5" source="b_lhGth3HPW_QYc_eFgR-9" target="b_lhGth3HPW_QYc_eFgR-5">
          <mxGeometry relative="1" as="geometry" />
        </mxCell>
        <mxCell id="b_lhGth3HPW_QYc_eFgR-9" value="call func" style="shape=process;whiteSpace=wrap;html=1;backgroundOutline=1;" vertex="1" parent="b_lhGth3HPW_QYc_eFgR-5">
          <mxGeometry x="60" y="140" width="75" height="50" as="geometry" />
        </mxCell>
        <mxCell id="b_lhGth3HPW_QYc_eFgR-8" value="pop queue" style="shape=process;whiteSpace=wrap;html=1;backgroundOutline=1;" vertex="1" parent="b_lhGth3HPW_QYc_eFgR-5">
          <mxGeometry x="60" y="50" width="75" height="60" as="geometry" />
        </mxCell>
        <mxCell id="b_lhGth3HPW_QYc_eFgR-10" value="" style="edgeStyle=orthogonalEdgeStyle;rounded=0;orthogonalLoop=1;jettySize=auto;html=1;" edge="1" parent="b_lhGth3HPW_QYc_eFgR-5" source="b_lhGth3HPW_QYc_eFgR-8" target="b_lhGth3HPW_QYc_eFgR-9">
          <mxGeometry relative="1" as="geometry" />
        </mxCell>
        <mxCell id="b_lhGth3HPW_QYc_eFgR-6" style="edgeStyle=orthogonalEdgeStyle;rounded=0;orthogonalLoop=1;jettySize=auto;html=1;entryX=0.465;entryY=0;entryDx=0;entryDy=0;entryPerimeter=0;" edge="1" parent="WIyWlLk6GJQsqaUBKTNV-1" source="b_lhGth3HPW_QYc_eFgR-0" target="b_lhGth3HPW_QYc_eFgR-5">
          <mxGeometry relative="1" as="geometry" />
        </mxCell>
        <mxCell id="b_lhGth3HPW_QYc_eFgR-37" style="edgeStyle=orthogonalEdgeStyle;rounded=0;orthogonalLoop=1;jettySize=auto;html=1;" edge="1" parent="WIyWlLk6GJQsqaUBKTNV-1" source="b_lhGth3HPW_QYc_eFgR-20" target="b_lhGth3HPW_QYc_eFgR-38">
          <mxGeometry relative="1" as="geometry">
            <mxPoint x="185" y="560" as="targetPoint" />
          </mxGeometry>
        </mxCell>
        <mxCell id="b_lhGth3HPW_QYc_eFgR-20" value="func()" style="ellipse;whiteSpace=wrap;html=1;" vertex="1" parent="WIyWlLk6GJQsqaUBKTNV-1">
          <mxGeometry x="105" y="440" width="90" height="60" as="geometry" />
        </mxCell>
        <mxCell id="b_lhGth3HPW_QYc_eFgR-46" style="edgeStyle=orthogonalEdgeStyle;rounded=0;orthogonalLoop=1;jettySize=auto;html=1;exitX=1;exitY=0.25;exitDx=0;exitDy=0;" edge="1" parent="WIyWlLk6GJQsqaUBKTNV-1" source="b_lhGth3HPW_QYc_eFgR-33">
          <mxGeometry relative="1" as="geometry">
            <mxPoint x="140" y="130" as="targetPoint" />
            <Array as="points">
              <mxPoint x="570" y="440" />
              <mxPoint x="570" y="130" />
            </Array>
          </mxGeometry>
        </mxCell>
        <mxCell id="b_lhGth3HPW_QYc_eFgR-33" value="check()" style="swimlane;whiteSpace=wrap;html=1;" vertex="1" parent="WIyWlLk6GJQsqaUBKTNV-1">
          <mxGeometry x="350" y="390" width="200" height="200" as="geometry" />
        </mxCell>
        <mxCell id="b_lhGth3HPW_QYc_eFgR-35" value="True" style="edgeStyle=orthogonalEdgeStyle;rounded=0;orthogonalLoop=1;jettySize=auto;html=1;" edge="1" parent="b_lhGth3HPW_QYc_eFgR-33" source="b_lhGth3HPW_QYc_eFgR-34">
          <mxGeometry relative="1" as="geometry">
            <mxPoint x="30" y="210" as="targetPoint" />
          </mxGeometry>
        </mxCell>
        <mxCell id="b_lhGth3HPW_QYc_eFgR-36" value="False" style="edgeStyle=orthogonalEdgeStyle;rounded=0;orthogonalLoop=1;jettySize=auto;html=1;entryX=1;entryY=0.25;entryDx=0;entryDy=0;exitX=1;exitY=0.5;exitDx=0;exitDy=0;" edge="1" parent="b_lhGth3HPW_QYc_eFgR-33" source="b_lhGth3HPW_QYc_eFgR-34" target="b_lhGth3HPW_QYc_eFgR-33">
          <mxGeometry relative="1" as="geometry">
            <mxPoint x="170" y="200" as="targetPoint" />
            <Array as="points">
              <mxPoint x="150" y="100" />
              <mxPoint x="150" y="40" />
              <mxPoint x="170" y="40" />
              <mxPoint x="170" y="50" />
            </Array>
          </mxGeometry>
        </mxCell>
        <mxCell id="b_lhGth3HPW_QYc_eFgR-34" value="queue is empty" style="rhombus;whiteSpace=wrap;html=1;" vertex="1" parent="b_lhGth3HPW_QYc_eFgR-33">
          <mxGeometry x="60" y="60" width="80" height="80" as="geometry" />
        </mxCell>
        <mxCell id="b_lhGth3HPW_QYc_eFgR-39" style="edgeStyle=orthogonalEdgeStyle;rounded=0;orthogonalLoop=1;jettySize=auto;html=1;" edge="1" parent="WIyWlLk6GJQsqaUBKTNV-1" source="b_lhGth3HPW_QYc_eFgR-38">
          <mxGeometry relative="1" as="geometry">
            <mxPoint x="350" y="480" as="targetPoint" />
            <Array as="points">
              <mxPoint x="311" y="560" />
            </Array>
          </mxGeometry>
        </mxCell>
        <mxCell id="b_lhGth3HPW_QYc_eFgR-38" value="call Check()" style="shape=process;whiteSpace=wrap;html=1;backgroundOutline=1;" vertex="1" parent="WIyWlLk6GJQsqaUBKTNV-1">
          <mxGeometry x="90" y="530" width="120" height="60" as="geometry" />
        </mxCell>
        <mxCell id="b_lhGth3HPW_QYc_eFgR-48" style="edgeStyle=orthogonalEdgeStyle;rounded=0;orthogonalLoop=1;jettySize=auto;html=1;exitX=0;exitY=0.75;exitDx=0;exitDy=0;" edge="1" parent="WIyWlLk6GJQsqaUBKTNV-1" source="b_lhGth3HPW_QYc_eFgR-47">
          <mxGeometry relative="1" as="geometry">
            <mxPoint x="150" y="510" as="targetPoint" />
            <mxPoint x="220" y="650" as="sourcePoint" />
            <Array as="points">
              <mxPoint x="320" y="650" />
              <mxPoint x="51" y="650" />
            </Array>
          </mxGeometry>
        </mxCell>
        <mxCell id="b_lhGth3HPW_QYc_eFgR-47" value="Run iteration" style="shape=process;whiteSpace=wrap;html=1;backgroundOutline=1;" vertex="1" parent="WIyWlLk6GJQsqaUBKTNV-1">
          <mxGeometry x="320" y="600" width="120" height="60" as="geometry" />
        </mxCell>
        <mxCell id="b_lhGth3HPW_QYc_eFgR-50" style="edgeStyle=orthogonalEdgeStyle;rounded=0;orthogonalLoop=1;jettySize=auto;html=1;entryX=0.5;entryY=0;entryDx=0;entryDy=0;" edge="1" parent="WIyWlLk6GJQsqaUBKTNV-1" source="b_lhGth3HPW_QYc_eFgR-49" target="b_lhGth3HPW_QYc_eFgR-52">
          <mxGeometry relative="1" as="geometry">
            <mxPoint x="160" y="830" as="targetPoint" />
          </mxGeometry>
        </mxCell>
        <mxCell id="b_lhGth3HPW_QYc_eFgR-49" value="Web Socket" style="ellipse;whiteSpace=wrap;html=1;" vertex="1" parent="WIyWlLk6GJQsqaUBKTNV-1">
          <mxGeometry x="310" y="710" width="120" height="80" as="geometry" />
        </mxCell>
        <mxCell id="b_lhGth3HPW_QYc_eFgR-53" value="Request" style="edgeStyle=orthogonalEdgeStyle;rounded=0;orthogonalLoop=1;jettySize=auto;html=1;entryX=0.5;entryY=0;entryDx=0;entryDy=0;" edge="1" parent="WIyWlLk6GJQsqaUBKTNV-1" source="b_lhGth3HPW_QYc_eFgR-52" target="b_lhGth3HPW_QYc_eFgR-54">
          <mxGeometry relative="1" as="geometry">
            <mxPoint x="165" y="960" as="targetPoint" />
          </mxGeometry>
        </mxCell>
        <mxCell id="b_lhGth3HPW_QYc_eFgR-52" value="Wait for request" style="shape=process;whiteSpace=wrap;html=1;backgroundOutline=1;" vertex="1" parent="WIyWlLk6GJQsqaUBKTNV-1">
          <mxGeometry x="310" y="830" width="120" height="60" as="geometry" />
        </mxCell>
        <mxCell id="b_lhGth3HPW_QYc_eFgR-61" style="edgeStyle=orthogonalEdgeStyle;rounded=0;orthogonalLoop=1;jettySize=auto;html=1;exitX=0;exitY=0.25;exitDx=0;exitDy=0;" edge="1" parent="WIyWlLk6GJQsqaUBKTNV-1" source="b_lhGth3HPW_QYc_eFgR-54" target="b_lhGth3HPW_QYc_eFgR-62">
          <mxGeometry relative="1" as="geometry">
            <mxPoint x="140" y="980" as="targetPoint" />
          </mxGeometry>
        </mxCell>
        <mxCell id="b_lhGth3HPW_QYc_eFgR-64" style="edgeStyle=orthogonalEdgeStyle;rounded=0;orthogonalLoop=1;jettySize=auto;html=1;exitX=1;exitY=0.75;exitDx=0;exitDy=0;" edge="1" parent="WIyWlLk6GJQsqaUBKTNV-1" source="b_lhGth3HPW_QYc_eFgR-54" target="b_lhGth3HPW_QYc_eFgR-65">
          <mxGeometry relative="1" as="geometry">
            <mxPoint x="680" y="940" as="targetPoint" />
            <Array as="points">
              <mxPoint x="680" y="1119" />
            </Array>
          </mxGeometry>
        </mxCell>
        <mxCell id="b_lhGth3HPW_QYc_eFgR-54" value="Validate" style="swimlane;whiteSpace=wrap;html=1;" vertex="1" parent="WIyWlLk6GJQsqaUBKTNV-1">
          <mxGeometry x="270" y="969" width="200" height="200" as="geometry" />
        </mxCell>
        <mxCell id="b_lhGth3HPW_QYc_eFgR-57" value="false" style="edgeStyle=orthogonalEdgeStyle;rounded=0;orthogonalLoop=1;jettySize=auto;html=1;" edge="1" parent="b_lhGth3HPW_QYc_eFgR-54" source="b_lhGth3HPW_QYc_eFgR-56">
          <mxGeometry relative="1" as="geometry">
            <mxPoint y="56" as="targetPoint" />
          </mxGeometry>
        </mxCell>
        <mxCell id="b_lhGth3HPW_QYc_eFgR-56" value="function exists" style="rhombus;whiteSpace=wrap;html=1;" vertex="1" parent="b_lhGth3HPW_QYc_eFgR-54">
          <mxGeometry x="65" y="21" width="70" height="70" as="geometry" />
        </mxCell>
        <mxCell id="b_lhGth3HPW_QYc_eFgR-60" style="edgeStyle=orthogonalEdgeStyle;rounded=0;orthogonalLoop=1;jettySize=auto;html=1;" edge="1" parent="b_lhGth3HPW_QYc_eFgR-54" source="b_lhGth3HPW_QYc_eFgR-59">
          <mxGeometry relative="1" as="geometry">
            <mxPoint x="200" y="151" as="targetPoint" />
          </mxGeometry>
        </mxCell>
        <mxCell id="b_lhGth3HPW_QYc_eFgR-59" value="add function to queue" style="shape=process;whiteSpace=wrap;html=1;backgroundOutline=1;" vertex="1" parent="b_lhGth3HPW_QYc_eFgR-54">
          <mxGeometry x="40" y="121" width="120" height="60" as="geometry" />
        </mxCell>
        <mxCell id="b_lhGth3HPW_QYc_eFgR-58" value="True" style="edgeStyle=orthogonalEdgeStyle;rounded=0;orthogonalLoop=1;jettySize=auto;html=1;" edge="1" parent="b_lhGth3HPW_QYc_eFgR-54" source="b_lhGth3HPW_QYc_eFgR-56" target="b_lhGth3HPW_QYc_eFgR-59">
          <mxGeometry relative="1" as="geometry">
            <mxPoint x="95" y="130" as="targetPoint" />
          </mxGeometry>
        </mxCell>
        <mxCell id="b_lhGth3HPW_QYc_eFgR-67" style="edgeStyle=orthogonalEdgeStyle;rounded=0;orthogonalLoop=1;jettySize=auto;html=1;" edge="1" parent="WIyWlLk6GJQsqaUBKTNV-1" source="b_lhGth3HPW_QYc_eFgR-62">
          <mxGeometry relative="1" as="geometry">
            <mxPoint x="370" y="800" as="targetPoint" />
            <Array as="points">
              <mxPoint x="140" y="830" />
              <mxPoint x="141" y="830" />
            </Array>
          </mxGeometry>
        </mxCell>
        <mxCell id="b_lhGth3HPW_QYc_eFgR-62" value="BAD REQUEST" style="shape=hexagon;perimeter=hexagonPerimeter2;whiteSpace=wrap;html=1;fixedSize=1;" vertex="1" parent="WIyWlLk6GJQsqaUBKTNV-1">
          <mxGeometry x="80" y="860" width="120" height="80" as="geometry" />
        </mxCell>
        <mxCell id="b_lhGth3HPW_QYc_eFgR-65" value="OKAY" style="shape=hexagon;perimeter=hexagonPerimeter2;whiteSpace=wrap;html=1;fixedSize=1;" vertex="1" parent="WIyWlLk6GJQsqaUBKTNV-1">
          <mxGeometry x="620" y="900" width="120" height="80" as="geometry" />
        </mxCell>
        <mxCell id="b_lhGth3HPW_QYc_eFgR-70" value="" style="endArrow=none;html=1;rounded=0;exitX=0.5;exitY=0;exitDx=0;exitDy=0;" edge="1" parent="WIyWlLk6GJQsqaUBKTNV-1" source="b_lhGth3HPW_QYc_eFgR-65">
          <mxGeometry width="50" height="50" relative="1" as="geometry">
            <mxPoint x="390" y="950" as="sourcePoint" />
            <mxPoint x="680" y="800" as="targetPoint" />
            <Array as="points">
              <mxPoint x="680" y="850" />
            </Array>
          </mxGeometry>
        </mxCell>
        <mxCell id="b_lhGth3HPW_QYc_eFgR-71" value="" style="endArrow=classic;html=1;rounded=0;" edge="1" parent="WIyWlLk6GJQsqaUBKTNV-1">
          <mxGeometry width="50" height="50" relative="1" as="geometry">
            <mxPoint x="680" y="800" as="sourcePoint" />
            <mxPoint x="370" y="800" as="targetPoint" />
          </mxGeometry>
        </mxCell>
      </root>
    </mxGraphModel>
  </diagram>
</mxfile>
